<?xml version="1.0" encoding="UTF-8"?>
<svg xmlns="http://www.w3.org/2000/svg" xmlns:xlink="http://www.w3.org/1999/xlink" viewBox="0 0 20 20" width="20px" height="20px">
<g id="surface21343143">
<path style=" stroke:none;fill-rule:nonzero;fill:rgb(100%,100%,100%);fill-opacity:1;" d="M 18.75 4.121094 C 18.097656 4.40625 17.4375 4.613281 16.710938 4.683594 C 17.4375 4.261719 18.023438 3.554688 18.3125 2.785156 C 17.582031 3.203125 16.855469 3.488281 16.054688 3.628906 C 15.324219 2.925781 14.375 2.5 13.355469 2.5 C 11.386719 2.5 9.78125 4.054688 9.78125 5.957031 C 9.78125 6.234375 9.78125 6.519531 9.855469 6.734375 C 6.09375 6.734375 3.515625 4.613281 1.769531 2.5 C 1.402344 2.992188 1.253906 3.628906 1.253906 4.261719 C 1.253906 5.460938 1.914062 6.519531 2.863281 7.152344 C 2.277344 7.085938 1.695312 6.945312 1.253906 6.734375 C 1.253906 6.734375 1.253906 6.734375 1.253906 6.800781 C 1.253906 8.496094 2.496094 9.902344 4.101562 10.1875 C 3.808594 10.253906 3.515625 10.328125 3.148438 10.328125 C 2.933594 10.328125 2.714844 10.328125 2.496094 10.257812 C 2.933594 11.671875 4.972656 13.292969 6.574219 13.292969 C 5.332031 14.203125 4.179688 15 1.875 15 C 1.582031 15 1.816406 15 1.25 15 C 2.851562 15.988281 4.75 16.25 6.71875 16.25 C 13.355469 16.25 16.929688 10.960938 16.929688 6.378906 C 16.929688 6.234375 16.929688 6.097656 16.929688 5.957031 C 17.65625 5.460938 18.242188 4.828125 18.75 4.121094 "/>
</g>
</svg>
