<?xml version="1.0" encoding="UTF-8"?>
<svg xmlns="http://www.w3.org/2000/svg" xmlns:xlink="http://www.w3.org/1999/xlink" viewBox="0 0 20 20" width="20px" height="20px">
<g id="surface21407612">
<path style=" stroke:none;fill-rule:nonzero;fill:rgb(100%,100%,100%);fill-opacity:1;" d="M 9.375 1.25 C 4.886719 1.25 1.25 4.882812 1.25 9.359375 C 1.25 12.945312 3.578125 15.988281 6.808594 17.0625 C 7.210938 17.132812 7.5 16.71875 7.5 16.40625 C 7.5 16.214844 7.503906 15.988281 7.5 15.3125 C 5.238281 15.800781 4.53125 14.21875 4.53125 14.21875 C 4.160156 13.28125 3.710938 13.011719 3.710938 13.011719 C 2.972656 12.511719 3.765625 12.523438 3.765625 12.523438 C 4.582031 12.578125 5 13.28125 5 13.28125 C 5.625 14.375 7.035156 14.269531 7.5 14.0625 C 7.5 13.566406 7.554688 13.203125 7.691406 12.972656 C 5.136719 12.523438 3.746094 11.050781 3.75 9.007812 C 3.753906 7.804688 4.171875 6.867188 4.84375 6.171875 C 4.550781 5.800781 4.351562 4.53125 4.953125 3.75 C 6.460938 3.75 7.359375 4.839844 7.359375 4.839844 C 7.359375 4.839844 8.066406 4.53125 9.371094 4.53125 C 10.679688 4.53125 11.382812 4.824219 11.382812 4.824219 C 11.382812 4.824219 12.285156 3.75 13.792969 3.75 C 14.394531 4.53125 14.195312 5.800781 13.960938 6.148438 C 14.605469 6.828125 15 7.765625 15 9.007812 C 15 11.050781 13.613281 12.523438 11.066406 12.96875 C 11.226562 13.214844 11.25 13.554688 11.25 14.0625 C 11.25 15.148438 11.25 16.136719 11.25 16.40625 C 11.25 16.71875 11.535156 17.140625 11.949219 17.0625 C 15.175781 15.980469 17.5 12.945312 17.5 9.359375 C 17.5 4.882812 13.863281 1.25 9.375 1.25 Z M 9.375 1.25 "/>
</g>
</svg>
